<svg width="2919" height="1024" viewBox="0 0 2919 1024" fill="none" xmlns="http://www.w3.org/2000/svg">
<path d="M430.593 311.672L357.45 385.228L377.698 407.129L397.534 429.031L430.593 395.972C449.188 377.376 466.131 362.5 468.197 362.5C471.503 362.5 472.743 427.378 472.743 573.25V784H505.801H538.86V573.25C538.86 457.131 540.1 362.5 541.753 362.5C543.406 362.5 560.348 377.79 578.944 396.385L612.829 429.857L632.665 408.782L652.5 387.707L579.771 312.912C539.687 272.001 506.215 238.529 505.388 238.529C504.148 238.529 470.676 271.588 430.593 311.672Z" fill="black"/>
<path d="M286.787 452.172C286.787 458.784 289.679 472.834 292.985 483.991C309.101 536.885 349.598 570.771 407.865 579.035L427.287 581.928V566.225C427.287 548.456 420.262 523.662 409.931 504.653C392.575 472.834 341.334 441.015 306.622 441.015C287.613 441.015 286.787 441.428 286.787 452.172Z" fill="black"/>
<path d="M675.641 447.626C633.491 460.85 606.218 491.429 590.101 543.91C587.209 554.241 584.316 567.465 584.316 572.837C584.316 581.928 585.556 582.341 602.085 580.688C662.418 573.663 716.551 520.769 723.576 460.85L726.056 441.015L709.94 441.428C701.262 441.841 685.559 444.321 675.641 447.626Z" fill="black"/>
<path d="M282.654 601.35C282.654 620.359 295.051 656.723 306.622 672.426C320.672 691.022 330.59 699.7 350.838 710.444C367.368 719.122 418.196 731.106 424.394 727.387C432.659 722.428 422.741 674.079 408.691 651.765C386.79 617.466 336.375 590.193 294.225 589.779C284.307 589.779 282.654 591.432 282.654 601.35Z" fill="black"/>
<path d="M676.881 598.457C647.541 607.548 614.482 634.409 602.912 658.376C591.341 682.757 582.663 722.015 588.035 727.387C592.994 732.346 632.665 724.907 652.5 714.99C675.641 703.419 699.609 680.691 711.593 658.79C724.403 636.062 735.147 600.11 731.015 593.498C727.296 587.713 704.568 589.366 676.881 598.457Z" fill="black"/>
<rect x="231" y="753.007" width="30.9926" height="30.9926" fill="black"/>
<rect x="762.007" y="753.007" width="30.9926" height="30.9926" fill="black"/>
<path fill-rule="evenodd" clip-rule="evenodd" d="M303.316 238.529H231V310.846H261.993V269.522H303.316V238.529Z" fill="black"/>
<path fill-rule="evenodd" clip-rule="evenodd" d="M793 238.529H720.684V269.522H762.007V310.846H793V238.529Z" fill="black"/>
<path d="M1044.3 623C1028.7 623 1014.3 620.3 1001.1 614.9C987.9 609.3 976.4 601.5 966.6 591.5C957 581.5 949.5 569.7 944.1 556.1C938.7 542.3 936 527.3 936 511.1C936 494.9 938.6 480.1 943.8 466.7C949.2 453.3 956.7 441.7 966.3 431.9C976.1 421.9 987.6 414.3 1000.8 409.1C1014 403.7 1028.5 401 1044.3 401C1062.1 401 1078.1 404.5 1092.3 411.5C1106.7 418.3 1118.4 428 1127.4 440.6C1136.6 453 1142.2 467.6 1144.2 484.4H1099.2C1096.6 469 1090.3 457.4 1080.3 449.6C1070.3 441.6 1058.4 437.6 1044.6 437.6C1032.4 437.6 1021.6 440.5 1012.2 446.3C1003 452.1 995.8 460.5 990.6 471.5C985.4 482.3 982.8 495.4 982.8 510.8C982.8 526.4 985.4 539.9 990.6 551.3C996 562.5 1003.4 571.2 1012.8 577.4C1022.2 583.4 1033 586.4 1045.2 586.4C1058.2 586.4 1069.7 582.5 1079.7 574.7C1089.7 566.9 1096.2 555.3 1099.2 539.9H1144.8C1142.2 556.7 1136.3 571.4 1127.1 584C1117.9 596.4 1106.2 606 1092 612.8C1077.8 619.6 1061.9 623 1044.3 623ZM1275.15 620C1273.95 615.6 1273.05 610.9 1272.45 605.9C1272.05 600.9 1271.85 595.1 1271.85 588.5H1270.65V516.2C1270.65 510 1268.55 505.2 1264.35 501.8C1260.35 498.2 1254.35 496.4 1246.35 496.4C1238.75 496.4 1232.65 497.7 1228.05 500.3C1223.65 502.9 1220.75 506.7 1219.35 511.7H1176.45C1178.45 497.9 1185.55 486.5 1197.75 477.5C1209.95 468.5 1226.65 464 1247.85 464C1269.85 464 1286.65 468.9 1298.25 478.7C1309.85 488.5 1315.65 502.6 1315.65 521V588.5C1315.65 593.5 1315.95 598.6 1316.55 603.8C1317.35 608.8 1318.55 614.2 1320.15 620H1275.15ZM1221.75 623C1206.55 623 1194.45 619.2 1185.45 611.6C1176.45 603.8 1171.95 593.5 1171.95 580.7C1171.95 566.5 1177.25 555.1 1187.85 546.5C1198.65 537.7 1213.65 532 1232.85 529.4L1277.55 523.1V549.2L1240.35 554.9C1232.35 556.1 1226.45 558.3 1222.65 561.5C1218.85 564.7 1216.95 569.1 1216.95 574.7C1216.95 579.7 1218.75 583.5 1222.35 586.1C1225.95 588.7 1230.75 590 1236.75 590C1246.15 590 1254.15 587.5 1260.75 582.5C1267.35 577.3 1270.65 571.3 1270.65 564.5L1274.85 588.5C1270.45 599.9 1263.75 608.5 1254.75 614.3C1245.75 620.1 1234.75 623 1221.75 623ZM1365.23 620V467H1409.33V503H1410.23V620H1365.23ZM1410.23 540.2L1406.33 503.9C1409.93 490.9 1415.83 481 1424.03 474.2C1432.23 467.4 1442.43 464 1454.63 464C1458.43 464 1461.23 464.4 1463.03 465.2V507.2C1462.03 506.8 1460.63 506.6 1458.83 506.6C1457.03 506.4 1454.83 506.3 1452.23 506.3C1437.83 506.3 1427.23 508.9 1420.43 514.1C1413.63 519.1 1410.23 527.8 1410.23 540.2ZM1569.42 623C1552.42 623 1537.62 619.7 1525.02 613.1C1512.42 606.3 1502.62 596.9 1495.62 584.9C1488.82 572.9 1485.42 559.1 1485.42 543.5C1485.42 527.7 1488.82 513.9 1495.62 502.1C1502.62 490.1 1512.32 480.8 1524.72 474.2C1537.12 467.4 1551.52 464 1567.92 464C1583.72 464 1597.42 467.2 1609.02 473.6C1620.62 480 1629.62 488.9 1636.02 500.3C1642.42 511.7 1645.62 525.1 1645.62 540.5C1645.62 543.7 1645.52 546.7 1645.32 549.5C1645.12 552.1 1644.82 554.6 1644.42 557H1511.82V527.3H1608.12L1600.32 532.7C1600.32 520.3 1597.32 511.2 1591.32 505.4C1585.52 499.4 1577.52 496.4 1567.32 496.4C1555.52 496.4 1546.32 500.4 1539.72 508.4C1533.32 516.4 1530.12 528.4 1530.12 544.4C1530.12 560 1533.32 571.6 1539.72 579.2C1546.32 586.8 1556.12 590.6 1569.12 590.6C1576.32 590.6 1582.52 589.4 1587.72 587C1592.92 584.6 1596.82 580.7 1599.42 575.3H1641.72C1636.72 590.1 1628.12 601.8 1615.92 610.4C1603.92 618.8 1588.42 623 1569.42 623ZM1759.62 623C1742.62 623 1727.82 619.7 1715.22 613.1C1702.62 606.3 1692.82 596.9 1685.82 584.9C1679.02 572.9 1675.62 559.1 1675.62 543.5C1675.62 527.7 1679.02 513.9 1685.82 502.1C1692.82 490.1 1702.52 480.8 1714.92 474.2C1727.32 467.4 1741.72 464 1758.12 464C1773.92 464 1787.62 467.2 1799.22 473.6C1810.82 480 1819.82 488.9 1826.22 500.3C1832.62 511.7 1835.82 525.1 1835.82 540.5C1835.82 543.7 1835.72 546.7 1835.52 549.5C1835.32 552.1 1835.02 554.6 1834.62 557H1702.02V527.3H1798.32L1790.52 532.7C1790.52 520.3 1787.52 511.2 1781.52 505.4C1775.72 499.4 1767.72 496.4 1757.52 496.4C1745.72 496.4 1736.52 500.4 1729.92 508.4C1723.52 516.4 1720.32 528.4 1720.32 544.4C1720.32 560 1723.52 571.6 1729.92 579.2C1736.52 586.8 1746.32 590.6 1759.32 590.6C1766.52 590.6 1772.72 589.4 1777.92 587C1783.12 584.6 1787.02 580.7 1789.62 575.3H1831.92C1826.92 590.1 1818.32 601.8 1806.12 610.4C1794.12 618.8 1778.62 623 1759.62 623ZM1874.88 620V467H1918.98V503H1919.88V620H1874.88ZM1919.88 540.2L1915.98 503.9C1919.58 490.9 1925.48 481 1933.68 474.2C1941.88 467.4 1952.08 464 1964.28 464C1968.08 464 1970.88 464.4 1972.68 465.2V507.2C1971.68 506.8 1970.28 506.6 1968.48 506.6C1966.68 506.4 1964.48 506.3 1961.88 506.3C1947.48 506.3 1936.88 508.9 1930.08 514.1C1923.28 519.1 1919.88 527.8 1919.88 540.2ZM2108.13 623C2092.53 623 2078.13 620.3 2064.93 614.9C2051.73 609.3 2040.23 601.5 2030.43 591.5C2020.83 581.5 2013.33 569.7 2007.93 556.1C2002.53 542.3 1999.83 527.3 1999.83 511.1C1999.83 494.9 2002.43 480.1 2007.63 466.7C2013.03 453.3 2020.53 441.7 2030.13 431.9C2039.93 421.9 2051.43 414.3 2064.63 409.1C2077.83 403.7 2092.33 401 2108.13 401C2125.93 401 2141.93 404.5 2156.13 411.5C2170.53 418.3 2182.23 428 2191.23 440.6C2200.43 453 2206.03 467.6 2208.03 484.4H2163.03C2160.43 469 2154.13 457.4 2144.13 449.6C2134.13 441.6 2122.23 437.6 2108.43 437.6C2096.23 437.6 2085.43 440.5 2076.03 446.3C2066.83 452.1 2059.63 460.5 2054.43 471.5C2049.23 482.3 2046.63 495.4 2046.63 510.8C2046.63 526.4 2049.23 539.9 2054.43 551.3C2059.83 562.5 2067.23 571.2 2076.63 577.4C2086.03 583.4 2096.83 586.4 2109.03 586.4C2122.03 586.4 2133.53 582.5 2143.53 574.7C2153.53 566.9 2160.03 555.3 2163.03 539.9H2208.63C2206.03 556.7 2200.13 571.4 2190.93 584C2181.73 596.4 2170.03 606 2155.83 612.8C2141.63 619.6 2125.73 623 2108.13 623ZM2248.83 620V467H2292.93V503H2293.83V620H2248.83ZM2293.83 540.2L2289.93 503.9C2293.53 490.9 2299.43 481 2307.63 474.2C2315.83 467.4 2326.03 464 2338.23 464C2342.03 464 2344.83 464.4 2346.63 465.2V507.2C2345.63 506.8 2344.23 506.6 2342.43 506.6C2340.63 506.4 2338.43 506.3 2335.83 506.3C2321.43 506.3 2310.83 508.9 2304.03 514.1C2297.23 519.1 2293.83 527.8 2293.83 540.2ZM2474.09 620C2472.89 615.6 2471.99 610.9 2471.39 605.9C2470.99 600.9 2470.79 595.1 2470.79 588.5H2469.59V516.2C2469.59 510 2467.49 505.2 2463.29 501.8C2459.29 498.2 2453.29 496.4 2445.29 496.4C2437.69 496.4 2431.59 497.7 2426.99 500.3C2422.59 502.9 2419.69 506.7 2418.29 511.7H2375.39C2377.39 497.9 2384.49 486.5 2396.69 477.5C2408.89 468.5 2425.59 464 2446.79 464C2468.79 464 2485.59 468.9 2497.19 478.7C2508.79 488.5 2514.59 502.6 2514.59 521V588.5C2514.59 593.5 2514.89 598.6 2515.49 603.8C2516.29 608.8 2517.49 614.2 2519.09 620H2474.09ZM2420.69 623C2405.49 623 2393.39 619.2 2384.39 611.6C2375.39 603.8 2370.89 593.5 2370.89 580.7C2370.89 566.5 2376.19 555.1 2386.79 546.5C2397.59 537.7 2412.59 532 2431.79 529.4L2476.49 523.1V549.2L2439.29 554.9C2431.29 556.1 2425.39 558.3 2421.59 561.5C2417.79 564.7 2415.89 569.1 2415.89 574.7C2415.89 579.7 2417.69 583.5 2421.29 586.1C2424.89 588.7 2429.69 590 2435.69 590C2445.09 590 2453.09 587.5 2459.69 582.5C2466.29 577.3 2469.59 571.3 2469.59 564.5L2473.79 588.5C2469.39 599.9 2462.69 608.5 2453.69 614.3C2444.69 620.1 2433.69 623 2420.69 623ZM2566.8 620V456.8C2566.8 438.4 2571.8 424.5 2581.8 415.1C2591.8 405.7 2606.6 401 2626.2 401C2630.4 401 2634 401.2 2637 401.6C2640.2 402 2643.3 402.7 2646.3 403.7V438.2C2644.9 437.6 2643.2 437.2 2641.2 437C2639.2 436.6 2636.8 436.4 2634 436.4C2626.4 436.4 2620.8 438.2 2617.2 441.8C2613.6 445.4 2611.8 450.6 2611.8 457.4V620H2566.8ZM2541.3 501.2V467H2643V501.2H2541.3ZM2756.96 623.3C2737.36 623.3 2722.76 618.6 2713.16 609.2C2703.76 599.6 2699.06 585.1 2699.06 565.7V432.8L2744.06 416V567.2C2744.06 574 2745.96 579.1 2749.76 582.5C2753.56 585.9 2759.46 587.6 2767.46 587.6C2770.46 587.6 2773.26 587.3 2775.86 586.7C2778.46 586.1 2781.06 585.4 2783.66 584.6V618.8C2781.06 620.2 2777.36 621.3 2772.56 622.1C2767.96 622.9 2762.76 623.3 2756.96 623.3ZM2670.56 501.2V467H2783.66V501.2H2670.56Z" fill="black"/>
</svg>
