<svg width="1992" height="1339" viewBox="0 0 1992 1339" fill="none" xmlns="http://www.w3.org/2000/svg">
<path d="M914.593 311.672L841.45 385.228L861.698 407.129L881.534 429.031L914.593 395.972C933.188 377.376 950.131 362.5 952.197 362.5C955.503 362.5 956.743 427.378 956.743 573.25V784H989.801H1022.86V573.25C1022.86 457.131 1024.1 362.5 1025.75 362.5C1027.41 362.5 1044.35 377.79 1062.94 396.385L1096.83 429.857L1116.66 408.782L1136.5 387.707L1063.77 312.912C1023.69 272.001 990.215 238.529 989.388 238.529C988.148 238.529 954.676 271.588 914.593 311.672Z" fill="black"/>
<path d="M770.787 452.172C770.787 458.784 773.679 472.834 776.985 483.991C793.101 536.885 833.598 570.771 891.865 579.035L911.287 581.928V566.225C911.287 548.456 904.262 523.662 893.931 504.653C876.575 472.834 825.334 441.015 790.622 441.015C771.613 441.015 770.787 441.428 770.787 452.172Z" fill="black"/>
<path d="M1159.64 447.626C1117.49 460.85 1090.22 491.429 1074.1 543.91C1071.21 554.241 1068.32 567.465 1068.32 572.837C1068.32 581.928 1069.56 582.341 1086.09 580.688C1146.42 573.663 1200.55 520.769 1207.58 460.85L1210.06 441.015L1193.94 441.428C1185.26 441.841 1169.56 444.321 1159.64 447.626Z" fill="black"/>
<path d="M766.654 601.35C766.654 620.359 779.051 656.723 790.622 672.426C804.672 691.022 814.59 699.7 834.838 710.444C851.368 719.122 902.196 731.106 908.394 727.387C916.659 722.428 906.741 674.079 892.691 651.765C870.79 617.466 820.375 590.193 778.225 589.779C768.307 589.779 766.654 591.432 766.654 601.35Z" fill="black"/>
<path d="M1160.88 598.457C1131.54 607.548 1098.48 634.409 1086.91 658.376C1075.34 682.757 1066.66 722.015 1072.04 727.387C1076.99 732.346 1116.66 724.907 1136.5 714.99C1159.64 703.419 1183.61 680.691 1195.59 658.79C1208.4 636.062 1219.15 600.11 1215.01 593.498C1211.3 587.713 1188.57 589.366 1160.88 598.457Z" fill="black"/>
<rect x="715" y="753.007" width="30.9926" height="30.9926" fill="black"/>
<rect x="1246.01" y="753.007" width="30.9926" height="30.9926" fill="black"/>
<path fill-rule="evenodd" clip-rule="evenodd" d="M787.316 238.529H715V310.846H745.993V269.522H787.316V238.529Z" fill="black"/>
<path fill-rule="evenodd" clip-rule="evenodd" d="M1277 238.529H1204.68V269.522H1246.01V310.846H1277V238.529Z" fill="black"/>
<path d="M180.488 1186C164.888 1186 150.488 1183.3 137.288 1177.9C124.088 1172.3 112.588 1164.5 102.787 1154.5C93.1875 1144.5 85.6875 1132.7 80.2875 1119.1C74.8875 1105.3 72.1875 1090.3 72.1875 1074.1C72.1875 1057.9 74.7875 1043.1 79.9875 1029.7C85.3875 1016.3 92.8875 1004.7 102.488 994.9C112.288 984.9 123.788 977.3 136.988 972.1C150.188 966.7 164.688 964 180.488 964C198.288 964 214.288 967.5 228.487 974.5C242.888 981.3 254.588 991 263.588 1003.6C272.788 1016 278.388 1030.6 280.388 1047.4H235.388C232.788 1032 226.488 1020.4 216.488 1012.6C206.488 1004.6 194.588 1000.6 180.788 1000.6C168.588 1000.6 157.788 1003.5 148.388 1009.3C139.188 1015.1 131.988 1023.5 126.788 1034.5C121.588 1045.3 118.988 1058.4 118.988 1073.8C118.988 1089.4 121.588 1102.9 126.788 1114.3C132.188 1125.5 139.588 1134.2 148.988 1140.4C158.388 1146.4 169.188 1149.4 181.388 1149.4C194.388 1149.4 205.888 1145.5 215.888 1137.7C225.888 1129.9 232.388 1118.3 235.388 1102.9H280.988C278.388 1119.7 272.488 1134.4 263.288 1147C254.088 1159.4 242.388 1169 228.188 1175.8C213.988 1182.6 198.088 1186 180.488 1186ZM411.335 1183C410.135 1178.6 409.235 1173.9 408.635 1168.9C408.235 1163.9 408.035 1158.1 408.035 1151.5H406.835V1079.2C406.835 1073 404.735 1068.2 400.535 1064.8C396.535 1061.2 390.535 1059.4 382.535 1059.4C374.935 1059.4 368.835 1060.7 364.235 1063.3C359.835 1065.9 356.935 1069.7 355.535 1074.7H312.635C314.635 1060.9 321.735 1049.5 333.935 1040.5C346.135 1031.5 362.835 1027 384.035 1027C406.035 1027 422.835 1031.9 434.435 1041.7C446.035 1051.5 451.835 1065.6 451.835 1084V1151.5C451.835 1156.5 452.135 1161.6 452.735 1166.8C453.535 1171.8 454.735 1177.2 456.335 1183H411.335ZM357.935 1186C342.735 1186 330.635 1182.2 321.635 1174.6C312.635 1166.8 308.135 1156.5 308.135 1143.7C308.135 1129.5 313.435 1118.1 324.035 1109.5C334.835 1100.7 349.835 1095 369.035 1092.4L413.735 1086.1V1112.2L376.535 1117.9C368.535 1119.1 362.635 1121.3 358.835 1124.5C355.035 1127.7 353.135 1132.1 353.135 1137.7C353.135 1142.7 354.935 1146.5 358.535 1149.1C362.135 1151.7 366.935 1153 372.935 1153C382.335 1153 390.335 1150.5 396.935 1145.5C403.535 1140.3 406.835 1134.3 406.835 1127.5L411.035 1151.5C406.635 1162.9 399.935 1171.5 390.935 1177.3C381.935 1183.1 370.935 1186 357.935 1186ZM501.422 1183V1030H545.522V1066H546.422V1183H501.422ZM546.422 1103.2L542.522 1066.9C546.122 1053.9 552.022 1044 560.222 1037.2C568.422 1030.4 578.622 1027 590.822 1027C594.622 1027 597.422 1027.4 599.222 1028.2V1070.2C598.222 1069.8 596.822 1069.6 595.022 1069.6C593.222 1069.4 591.022 1069.3 588.422 1069.3C574.022 1069.3 563.422 1071.9 556.622 1077.1C549.822 1082.1 546.422 1090.8 546.422 1103.2ZM705.609 1186C688.609 1186 673.809 1182.7 661.209 1176.1C648.609 1169.3 638.809 1159.9 631.809 1147.9C625.009 1135.9 621.609 1122.1 621.609 1106.5C621.609 1090.7 625.009 1076.9 631.809 1065.1C638.809 1053.1 648.509 1043.8 660.909 1037.2C673.309 1030.4 687.709 1027 704.109 1027C719.909 1027 733.609 1030.2 745.209 1036.6C756.809 1043 765.809 1051.9 772.209 1063.3C778.609 1074.7 781.809 1088.1 781.809 1103.5C781.809 1106.7 781.709 1109.7 781.509 1112.5C781.309 1115.1 781.009 1117.6 780.609 1120H648.009V1090.3H744.309L736.509 1095.7C736.509 1083.3 733.509 1074.2 727.509 1068.4C721.709 1062.4 713.709 1059.4 703.509 1059.4C691.709 1059.4 682.509 1063.4 675.909 1071.4C669.509 1079.4 666.309 1091.4 666.309 1107.4C666.309 1123 669.509 1134.6 675.909 1142.2C682.509 1149.8 692.309 1153.6 705.309 1153.6C712.509 1153.6 718.709 1152.4 723.909 1150C729.109 1147.6 733.009 1143.7 735.609 1138.3H777.909C772.909 1153.1 764.309 1164.8 752.109 1173.4C740.109 1181.8 724.609 1186 705.609 1186ZM895.805 1186C878.805 1186 864.005 1182.7 851.405 1176.1C838.805 1169.3 829.005 1159.9 822.005 1147.9C815.205 1135.9 811.805 1122.1 811.805 1106.5C811.805 1090.7 815.205 1076.9 822.005 1065.1C829.005 1053.1 838.705 1043.8 851.105 1037.2C863.505 1030.4 877.905 1027 894.305 1027C910.105 1027 923.805 1030.2 935.405 1036.6C947.005 1043 956.005 1051.9 962.405 1063.3C968.805 1074.7 972.005 1088.1 972.005 1103.5C972.005 1106.7 971.905 1109.7 971.705 1112.5C971.505 1115.1 971.205 1117.6 970.805 1120H838.205V1090.3H934.505L926.705 1095.7C926.705 1083.3 923.705 1074.2 917.705 1068.4C911.905 1062.4 903.905 1059.4 893.705 1059.4C881.905 1059.4 872.705 1063.4 866.105 1071.4C859.705 1079.4 856.505 1091.4 856.505 1107.4C856.505 1123 859.705 1134.6 866.105 1142.2C872.705 1149.8 882.505 1153.6 895.505 1153.6C902.705 1153.6 908.905 1152.4 914.105 1150C919.305 1147.6 923.205 1143.7 925.805 1138.3H968.105C963.105 1153.1 954.505 1164.8 942.305 1173.4C930.305 1181.8 914.805 1186 895.805 1186ZM1011.07 1183V1030H1055.17V1066H1056.07V1183H1011.07ZM1056.07 1103.2L1052.17 1066.9C1055.77 1053.9 1061.67 1044 1069.87 1037.2C1078.07 1030.4 1088.27 1027 1100.47 1027C1104.27 1027 1107.07 1027.4 1108.87 1028.2V1070.2C1107.87 1069.8 1106.47 1069.6 1104.67 1069.6C1102.87 1069.4 1100.67 1069.3 1098.07 1069.3C1083.67 1069.3 1073.07 1071.9 1066.27 1077.1C1059.47 1082.1 1056.07 1090.8 1056.07 1103.2ZM1244.32 1186C1228.72 1186 1214.32 1183.3 1201.12 1177.9C1187.92 1172.3 1176.42 1164.5 1166.62 1154.5C1157.02 1144.5 1149.52 1132.7 1144.12 1119.1C1138.72 1105.3 1136.02 1090.3 1136.02 1074.1C1136.02 1057.9 1138.62 1043.1 1143.82 1029.7C1149.22 1016.3 1156.72 1004.7 1166.32 994.9C1176.12 984.9 1187.62 977.3 1200.82 972.1C1214.02 966.7 1228.52 964 1244.32 964C1262.12 964 1278.12 967.5 1292.32 974.5C1306.72 981.3 1318.42 991 1327.42 1003.6C1336.62 1016 1342.22 1030.6 1344.22 1047.4H1299.22C1296.62 1032 1290.32 1020.4 1280.32 1012.6C1270.32 1004.6 1258.42 1000.6 1244.62 1000.6C1232.42 1000.6 1221.62 1003.5 1212.22 1009.3C1203.02 1015.1 1195.82 1023.5 1190.62 1034.5C1185.42 1045.3 1182.82 1058.4 1182.82 1073.8C1182.82 1089.4 1185.42 1102.9 1190.62 1114.3C1196.02 1125.5 1203.42 1134.2 1212.82 1140.4C1222.22 1146.4 1233.02 1149.4 1245.22 1149.4C1258.22 1149.4 1269.72 1145.5 1279.72 1137.7C1289.72 1129.9 1296.22 1118.3 1299.22 1102.9H1344.82C1342.22 1119.7 1336.32 1134.4 1327.12 1147C1317.92 1159.4 1306.22 1169 1292.02 1175.8C1277.82 1182.6 1261.92 1186 1244.32 1186ZM1385.02 1183V1030H1429.12V1066H1430.02V1183H1385.02ZM1430.02 1103.2L1426.12 1066.9C1429.72 1053.9 1435.62 1044 1443.82 1037.2C1452.02 1030.4 1462.22 1027 1474.42 1027C1478.22 1027 1481.02 1027.4 1482.82 1028.2V1070.2C1481.82 1069.8 1480.42 1069.6 1478.62 1069.6C1476.82 1069.4 1474.62 1069.3 1472.02 1069.3C1457.62 1069.3 1447.02 1071.9 1440.22 1077.1C1433.42 1082.1 1430.02 1090.8 1430.02 1103.2ZM1610.28 1183C1609.08 1178.6 1608.18 1173.9 1607.58 1168.9C1607.18 1163.9 1606.98 1158.1 1606.98 1151.5H1605.78V1079.2C1605.78 1073 1603.68 1068.2 1599.48 1064.8C1595.48 1061.2 1589.48 1059.4 1581.48 1059.4C1573.88 1059.4 1567.78 1060.7 1563.18 1063.3C1558.78 1065.9 1555.88 1069.7 1554.48 1074.7H1511.58C1513.58 1060.9 1520.68 1049.5 1532.88 1040.5C1545.08 1031.5 1561.78 1027 1582.98 1027C1604.98 1027 1621.78 1031.9 1633.38 1041.7C1644.98 1051.5 1650.78 1065.6 1650.78 1084V1151.5C1650.78 1156.5 1651.08 1161.6 1651.68 1166.8C1652.48 1171.8 1653.68 1177.2 1655.28 1183H1610.28ZM1556.88 1186C1541.68 1186 1529.58 1182.2 1520.58 1174.6C1511.58 1166.8 1507.08 1156.5 1507.08 1143.7C1507.08 1129.5 1512.38 1118.1 1522.98 1109.5C1533.78 1100.7 1548.78 1095 1567.98 1092.4L1612.68 1086.1V1112.2L1575.48 1117.9C1567.48 1119.1 1561.58 1121.3 1557.78 1124.5C1553.98 1127.7 1552.08 1132.1 1552.08 1137.7C1552.08 1142.7 1553.88 1146.5 1557.48 1149.1C1561.08 1151.7 1565.88 1153 1571.88 1153C1581.28 1153 1589.28 1150.5 1595.88 1145.5C1602.48 1140.3 1605.78 1134.3 1605.78 1127.5L1609.98 1151.5C1605.58 1162.9 1598.88 1171.5 1589.88 1177.3C1580.88 1183.1 1569.88 1186 1556.88 1186ZM1702.99 1183V1019.8C1702.99 1001.4 1707.99 987.5 1717.99 978.1C1727.99 968.7 1742.79 964 1762.39 964C1766.59 964 1770.19 964.2 1773.19 964.6C1776.39 965 1779.49 965.7 1782.49 966.7V1001.2C1781.09 1000.6 1779.39 1000.2 1777.39 1000C1775.39 999.6 1772.99 999.4 1770.19 999.4C1762.59 999.4 1756.99 1001.2 1753.39 1004.8C1749.79 1008.4 1747.99 1013.6 1747.99 1020.4V1183H1702.99ZM1677.49 1064.2V1030H1779.19V1064.2H1677.49ZM1893.14 1186.3C1873.54 1186.3 1858.94 1181.6 1849.34 1172.2C1839.94 1162.6 1835.24 1148.1 1835.24 1128.7V995.8L1880.24 979V1130.2C1880.24 1137 1882.14 1142.1 1885.94 1145.5C1889.74 1148.9 1895.64 1150.6 1903.64 1150.6C1906.64 1150.6 1909.44 1150.3 1912.04 1149.7C1914.64 1149.1 1917.24 1148.4 1919.84 1147.6V1181.8C1917.24 1183.2 1913.54 1184.3 1908.74 1185.1C1904.14 1185.9 1898.94 1186.3 1893.14 1186.3ZM1806.74 1064.2V1030H1919.84V1064.2H1806.74Z" fill="black"/>
</svg>
